<?xml version="1.0" standalone="no"?>
<!DOCTYPE svg PUBLIC "-//W3C//DTD SVG 20010904//EN"
 "http://www.w3.org/TR/2001/REC-SVG-20010904/DTD/svg10.dtd">
<svg version="1.0" xmlns="http://www.w3.org/2000/svg"
 width="90.000000pt" height="90.000000pt" viewBox="0 0 90.000000 90.000000"
 preserveAspectRatio="xMidYMid meet">

<g transform="translate(0.000000,90.000000) scale(0.100000,-0.100000)"
fill="#000000" stroke="none">
<path d="M355 796 c-107 -34 -186 -102 -232 -201 -24 -51 -28 -73 -28 -145 0
-72 4 -94 28 -146 130 -282 522 -281 654 1 24 51 28 73 28 145 0 72 -4 94 -28
145 -30 65 -81 124 -138 160 -78 50 -199 68 -284 41z m70 -248 l28 -51 24 47
c26 52 37 59 82 54 l31 -3 -46 -73 -46 -72 33 -53 c17 -28 38 -62 47 -74 14
-23 14 -23 -30 -23 -41 0 -45 2 -68 45 -14 25 -28 45 -31 45 -4 0 -19 -20 -33
-45 -25 -41 -30 -45 -67 -45 -45 0 -46 -2 17 98 l34 52 -41 68 c-23 37 -43 70
-46 75 -2 4 16 7 40 7 43 0 45 -2 72 -52z"/>
</g>
</svg>
